HIERARCHY
ROOT SpineBase
{
  OFFSET 0.000000 0.000000 0.000000
  CHANNELS 6 Xposition Yposition Zposition Zrotation Xrotation Yrotation
  JOINT SpineMid
  {
    OFFSET -0.000000 26.946569 0.000000
    CHANNELS 3 Zrotation Xrotation Yrotation
    JOINT SpineShoulder
    {
      OFFSET -0.162183 20.016588 -0.648935
      CHANNELS 3 Zrotation Xrotation Yrotation
      JOINT Neck
      {
        OFFSET -0.111429 6.619839 -0.494155
        CHANNELS 3 Zrotation Xrotation Yrotation
        JOINT Head
        {
          OFFSET -3.446169 11.837047 1.017365
          CHANNELS 3 Zrotation Xrotation Yrotation
          End Site
          {
            OFFSET 0 0 0
          }
        }
      }
      JOINT ShoulderLeft
      {
        OFFSET -12.226560 -6.748763 10.542087
        CHANNELS 3 Zrotation Xrotation Yrotation
        JOINT ElbowLeft
        {
          OFFSET -2.475295 -23.409605 -1.581113
          CHANNELS 3 Zrotation Xrotation Yrotation
          JOINT WristLeft
          {
            OFFSET 2.242952 -16.151709 -14.367097
            CHANNELS 3 Zrotation Xrotation Yrotation
            JOINT HandLeft
            {
              OFFSET 0.402768 -6.357692 -2.509163
              CHANNELS 3 Zrotation Xrotation Yrotation
              JOINT HandTipLeft
              {
                OFFSET -1.218537 -5.472117 -2.536692
                CHANNELS 3 Zrotation Xrotation Yrotation
                End Site
                {
                  OFFSET 0 0 0
                }
              }
              JOINT ThumbLeft
              {
                OFFSET -4.336315 0.919467 -1.945507
                CHANNELS 3 Zrotation Xrotation Yrotation
                End Site
                {
                  OFFSET 0 0 0
                }
              }
            }
          }
        }
      }
      JOINT ShoulderRight
      {
        OFFSET 8.511410 -4.671663 -9.950620
        CHANNELS 3 Zrotation Xrotation Yrotation
        JOINT ElbowRight
        {
          OFFSET 5.071747 -22.642040 -5.435702
          CHANNELS 3 Zrotation Xrotation Yrotation
          JOINT WristRight
          {
            OFFSET 0.649243 -16.002870 -4.633790
            CHANNELS 3 Zrotation Xrotation Yrotation
            JOINT HandRight
            {
              OFFSET 0.665916 -2.640771 0.469341
              CHANNELS 3 Zrotation Xrotation Yrotation
              JOINT HandTipRight
              {
                OFFSET -1.692657 -3.003526 -0.923907
                CHANNELS 3 Zrotation Xrotation Yrotation
                End Site
                {
                  OFFSET 0 0 0
                }
              }
              JOINT ThumbRight
              {
                OFFSET -2.627957 -0.791116 -0.138444
                CHANNELS 3 Zrotation Xrotation Yrotation
                End Site
                {
                  OFFSET 0 0 0
                }
              }
            }
          }
        }
      }
    }
  }
  JOINT HipLeft
  {
    OFFSET -4.880147 0.645463 0.796691
    CHANNELS 3 Zrotation Xrotation Yrotation
    JOINT KneeLeft
    {
      OFFSET 1.519537 -28.514292 4.678832
      CHANNELS 3 Zrotation Xrotation Yrotation
      JOINT AnkleLeft
      {
        OFFSET 2.636230 -27.789582 1.614230
        CHANNELS 3 Zrotation Xrotation Yrotation
        JOINT FootLeft
        {
          OFFSET -3.041937 -4.660505 -6.783673
          CHANNELS 3 Zrotation Xrotation Yrotation
          End Site
          {
            OFFSET 0 0 0
          }
        }
      }
    }
  }
  JOINT HipRight
  {
    OFFSET 3.537543 0.536531 -7.090849
    CHANNELS 3 Zrotation Xrotation Yrotation
    JOINT KneeRight
    {
      OFFSET 7.501890 -24.292305 3.081315
      CHANNELS 3 Zrotation Xrotation Yrotation
      JOINT AnkleRight
      {
        OFFSET 6.053689 -32.670526 8.557361
        CHANNELS 3 Zrotation Xrotation Yrotation
        JOINT FootRight
        {
          OFFSET -2.586251 -6.246412 -3.527285
          CHANNELS 3 Zrotation Xrotation Yrotation
          End Site
          {
            OFFSET 0 0 0
          }
        }
      }
    }
  }
}
MOTION
Frames: 5
Frame Time: 0.033333
69.079883 65.668841 343.806499 0.000000 0.000000 43.137734 -0.000000 0.000000 -43.137734 -0.000000 0.000000 0.000000 -0.000000 0.000000 0.000000 0.000000 0.000000 0.000000 -0.000000 0.000000 0.000000 -0.000000 0.000000 0.000000 -0.000000 0.000000 0.000000 -0.000000 0.000000 0.000000 0.000000 0.000000 0.000000 0.000000 0.000000 0.000000 -0.000000 0.000000 0.000000 -0.000000 0.000000 0.000000 -0.000000 0.000000 0.000000 -0.000000 0.000000 0.000000 0.000000 0.000000 0.000000 0.000000 0.000000 0.000000 -0.000000 0.000000 -43.137734 -0.000000 0.000000 0.000000 -0.000000 0.000000 0.000000 0.000000 0.000000 0.000000 -0.000000 0.000000 -43.137734 -0.000000 0.000000 0.000000 -0.000000 0.000000 0.000000 0.000000 0.000000 0.000000
68.356613 65.477958 343.757745 -0.213258 0.248047 43.302301 -0.014923 -0.326777 -43.301882 -0.000000 0.000000 0.000000 -0.000000 0.000000 0.000000 0.000000 0.000000 0.000000 -0.281615 0.819411 -0.065562 -0.703311 -4.506680 0.402056 0.302230 9.008627 0.287285 0.816095 -3.984795 -0.928906 0.000000 0.000000 0.000000 0.000000 0.000000 0.000000 0.533140 -0.695532 -0.280671 -0.159010 -1.818285 0.081909 -8.278653 -2.068362 -2.337592 21.124885 -3.111760 2.857899 0.000000 0.000000 0.000000 0.000000 0.000000 0.000000 0.196622 -1.275113 -43.196109 -0.803378 0.546522 -0.098984 -5.391711 4.723312 4.573848 0.000000 0.000000 0.000000 -1.245318 1.265763 -43.447460 5.592648 -1.585962 0.919016 -6.482066 2.032033 0.772444 0.000000 0.000000 0.000000
67.679941 65.304603 343.726261 -0.407434 0.446248 43.447413 -0.011072 -0.604163 -43.445885 -0.000000 0.000000 0.000000 -0.509921 -1.349939 -0.356033 0.000000 0.000000 0.000000 -0.500824 1.422378 -0.110221 -1.332263 -8.311383 0.683975 0.582193 16.385713 0.575863 1.557112 -7.429982 -1.570227 0.000000 0.000000 0.000000 0.000000 0.000000 0.000000 0.965757 -1.273190 -0.506719 -0.326642 -3.231273 0.176274 -13.535984 -2.253660 -3.421894 34.712526 -5.388174 4.241524 0.000000 0.000000 0.000000 0.000000 0.000000 0.000000 0.159957 -2.376676 -43.283734 0.110075 1.342781 -0.075250 -10.189417 7.440756 7.178118 0.000000 0.000000 0.000000 -2.269625 2.663839 -43.647672 10.363603 -2.964159 1.747870 -11.741757 3.431764 1.677827 0.000000 0.000000 0.000000
67.049867 65.148778 343.712046 -0.582654 0.594815 43.572534 0.170135 0.085487 -43.578925 0.114138 0.150752 -0.002773 -0.335500 -2.804110 -0.491414 0.000000 0.000000 0.000000 -0.254618 0.885490 -0.129069 -1.866065 -11.278697 0.872024 0.840455 21.617213 0.783465 2.185135 -9.998643 -1.914409 0.000000 0.000000 0.000000 0.000000 0.000000 0.000000 1.704470 -2.655047 -0.641830 -0.491244 -4.320195 0.268474 -17.141822 -1.640643 -3.801215 43.688467 -7.236791 5.233565 0.000000 0.000000 0.000000 0.000000 0.000000 0.000000 -0.103225 -3.312447 -43.407362 0.859741 2.478528 -0.032955 -12.843179 8.788973 8.104711 0.000000 0.000000 0.000000 -3.083858 4.190867 -43.740492 14.329055 -4.171312 2.465640 -15.837116 4.193278 2.594590 0.000000 0.000000 0.000000
66.466390 65.010481 343.715102 -0.739033 0.693928 43.677026 0.203272 0.087500 -43.684749 0.136424 0.170178 -0.004837 -0.436117 -3.380633 -0.605700 0.000000 0.000000 0.000000 -0.240029 0.916317 -0.134129 -2.285567 -13.311516 0.992630 1.086563 24.343139 0.831208 2.673247 -11.447610 -1.970687 0.000000 0.000000 0.000000 0.000000 0.000000 0.000000 2.051468 -3.134240 -0.750655 -0.644381 -5.148717 0.348144 -19.788822 -0.636963 -3.780556 49.896565 -8.865253 6.189258 0.000000 0.000000 0.000000 0.000000 0.000000 0.000000 -0.589934 -4.088102 -43.571496 2.042548 3.928181 0.030070 -14.159779 9.155008 7.472965 0.000000 0.000000 0.000000 -3.698486 5.845096 -43.728875 17.511429 -5.238593 3.053968 -18.817340 4.325406 3.436791 0.000000 0.000000 0.000000
